<svg id="final_svg" xmlns="http://www.w3.org/2000/svg" xmlns:xlink="http://www.w3.org/1999/xlink" viewBox="335.5142517089844 107.70855712890625 244.80001831054688 315.3999938964844">
      <style type="text/css">.st0{fill:#1598E0;}	.st1{fill:url(#SVGID_1_);}	.st2{fill:url(#SVGID_2_);}</style>
    <g id="color_index_0" fill="#e13845" transform="translate(335.51424025000006, 107.70855499999993) scale(1)" opacity="1">
              <path d="M234.9,76.9c-6.6-15.3-15.6-28.7-27-40.1c-8.8-8.8-18.8-16.2-30-22.1c-3.3-1.8-6.6-3.4-10.1-4.9		C152.6,3.3,136.3,0,119.2,0H46.9c-6.6,0-12.9,1.3-18.6,3.7c-5.6,2.5-10.5,5.8-14.6,10c-4.3,4.1-7.5,9.1-10,14.8		c-1.7,3.7-2.8,7.8-3.2,11.9L0,50.4V184c0,14.5,17.9,21.3,27.5,10.4c14.6-16.4,28.5-32,38-42.8c1.7-1.9,0.7-4.9-1.8-5.3L18.3,137		c-3.1-0.6-4-4.7-1.4-6.5l15.3-11.3c2.1-1.6,4.7-2.4,7.4-2.5l56.2-0.6c0.9,0,1.8-0.4,2.4-1.1c8.7-9.8,16.7-18.8,23.2-26.1		c2.8-3.1,5.4-6,7.9-8.5c0,0,0.1-0.1,0.4-0.4c0.3-0.3,0.8-0.8,1.5-1.5c0.4-0.5,0.9-0.9,1.4-1.4c0,0,0,0,0.1,0		c0.7-0.7,1.5-1.4,2.4-2.2c0.3-0.3,0.6-0.5,0.8-0.7c0.6-0.5,1.1-1,1.6-1.4c0.5-0.5,1-0.9,1.6-1.3c1-0.9,2.1-1.7,3-2.5		c0.3-0.3,0.7-0.5,1-0.8c0.2-0.2,0.5-0.3,0.7-0.5c0.9-0.7,1.8-1.3,2.7-1.9c0.8-0.6,1.5-1,2.3-1.5c0.6-0.4,1.3-0.8,1.9-1.2		c1.4-0.8,2.7-1.6,4-2.2c0.1,0,0.2-0.1,0.3-0.2c0.2-0.1,0.3-0.2,0.5-0.2c0.6-0.3,1.1-0.5,1.6-0.7c0.6-0.3,1.1-0.5,1.6-0.7		c0.1,0,0.2-0.1,0.3-0.1c0.7-0.2,1.2-0.5,1.8-0.6c0.6-0.2,1.2-0.4,1.7-0.5c0.1,0,0.1,0,0.2,0c0.6-0.2,1.2-0.3,1.7-0.4		c0.4-0.1,0.8-0.2,1.2-0.2c0.1,0,0.2,0,0.3,0c0.5-0.1,1,0,1.5,0.1c0.4,0.1,0.7,0.2,1,0.4c0,0,0.1,0,0.1,0.1c0.4,0.2,0.7,0.4,1,0.7		c0.2,0.2,0.4,0.4,0.6,0.7c0.5,0.7,0.8,1.6,0.8,2.5c0.1,6.8-3.3,22.1-26.3,48c-0.8,0.9-1.6,1.9-2.5,2.8c-0.8,1-1.7,2-2.6,3		c-1.8,2.1-3.7,4.2-5.6,6.3c-0.5,0.5-0.9,1.1-1.4,1.6c-1.5,1.7-3.1,3.4-4.6,5.1c-1.1,1.2-2.1,2.4-3.2,3.6c-0.5,0.6-1,1.2-1.6,1.8		c-0.5,0.6-1.1,1.2-1.6,1.8c-0.6,0.7-0.9,1.6-0.8,2.5l5,46.9l1,9c0.3,2.6-0.3,5.3-1.6,7.6l-9.4,16.5c-0.1,0.2-0.2,0.3-0.3,0.5		c-0.1,0.1-0.2,0.3-0.3,0.4c-0.2,0.2-0.4,0.3-0.6,0.5c-0.2,0.1-0.4,0.2-0.6,0.3c-0.2,0.1-0.5,0.2-0.7,0.2c-0.4,0.1-0.8,0.1-1.2,0		c-0.2,0-0.3,0-0.5-0.1c-0.4-0.1-0.7-0.3-1-0.5c-0.2-0.1-0.3-0.2-0.5-0.4c-0.1-0.1-0.3-0.3-0.4-0.4c-0.2-0.3-0.4-0.7-0.6-1.1		l-14.6-44c-0.3-0.8-0.8-1.4-1.5-1.8c-0.2-0.1-0.5-0.2-0.7-0.3c-0.5-0.2-1.1-0.2-1.6-0.1c-0.2,0-0.4,0.1-0.7,0.2		c-0.4,0.2-0.8,0.5-1.1,0.8c-2.4,2.7-5.1,5.7-7.9,9c0,0-0.1,0-0.1,0.1c-1.4,1.6-2.9,3.3-4.5,5c0,0-0.1,0-0.1,0.1		c-20.2,22.8-48.4,54.4-68.3,76.8c-0.5,0.5-0.9,1-1.3,1.6c-0.7,1-1.4,2.1-1.9,3.2c-0.1,0.2-0.2,0.3-0.3,0.5c-0.3,0.5-0.5,1-0.7,1.5		c-0.1,0.1-0.1,0.2-0.1,0.3c-0.3,0.7-0.5,1.3-0.7,2c-0.2,0.6-0.3,1.3-0.4,1.9c-0.1,0.7-0.2,1.3-0.3,2c-0.4,3.1,0,6.2,1.1,9.2		c0.1,0.4,0.3,0.7,0.4,1.1c2.5,5.7,5.7,10.6,10,14.8c4.2,4.1,9.1,7.5,14.6,10c2.9,1.2,5.9,2.2,9,2.8c2.3,0.5,4.7,0.7,7.1,0.9		c0.8,0,1.7,0.1,2.6,0.1c12.7-0.1,23.5-4.6,32.4-13.3c9.1-8.9,13.6-20,13.6-33.2v-17.8h26.2c17.2,0,33.4-3.3,48.7-9.9		c15.3-6.6,28.7-15.5,40-26.7c7.6-7.6,14.2-16,19.7-25.4c0,0,0.1-0.1,0.1-0.1c2.7-4.5,5-9.2,7.2-14.1c6.6-15.2,9.9-31.5,9.9-49		C244.8,108.5,241.5,92.2,234.9,76.9z"></path>
          </g>
    <g transform="translate(335.51424025000006, 107.70855499999993) scale(1)" opacity="1">
              <linearGradient id="SVGID_1_" gradientUnits="userSpaceOnUse" x1="203.6633" y1="473.767" x2="82.6569" y2="796.0259" gradientTransform="matrix(1 0 0 1 0 -476)">
                      <stop offset="0" style="stop-color:#000000;stop-opacity:0.3"></stop>
            <stop offset="8.490000e-02" style="stop-color:#000000;stop-opacity:0.2744"></stop>
            <stop offset="0.9944" style="stop-color:#000000;stop-opacity:0"></stop>
                  </linearGradient>
        <linearGradient id="SVGID_2_" gradientUnits="userSpaceOnUse" x1="101.2009" y1="646.1081" x2="101.2009" y2="801.4027" gradientTransform="matrix(1 0 0 1 0 -476)">
                      <stop offset="0" style="stop-color:#FFFFFF;stop-opacity:0.6"></stop>
            <stop offset="0.9944" style="stop-color:#FFFFFF;stop-opacity:0"></stop>
                  </linearGradient>
        <path class="st1" d="M244.8,125.6c0,17.5-3.3,33.8-9.9,49c-2.1,4.9-4.5,9.6-7.2,14.1c0,0,0,0.1-0.1,0.1c-5.5,9.3-12,17.8-19.7,25.4		c-11.4,11.2-24.7,20.1-40,26.7c-15.3,6.6-31.6,9.9-48.7,9.9H93v17.8c0,13.2-4.5,24.3-13.6,33.2c-9,8.8-19.8,13.2-32.4,13.3		c-0.9,0-1.7,0-2.6-0.1c-2.4-0.1-4.8-0.4-7.1-0.9c-3.1-0.6-6.2-1.6-9-2.8c-5.6-2.4-10.5-5.8-14.6-10c-4.3-4.2-7.5-9.1-10-14.8		c-0.1-0.3-0.3-0.7-0.4-1.1c-1.1-3-1.4-6.1-1.1-9.2c0.1-0.7,0.2-1.4,0.3-2c0.1-0.7,0.3-1.3,0.4-1.9c0.2-0.7,0.4-1.4,0.7-2		c0-0.1,0.1-0.2,0.1-0.3c0.2-0.5,0.4-1,0.7-1.5c0.1-0.2,0.2-0.3,0.3-0.5c0.5-1.1,1.2-2.2,1.9-3.2c0.4-0.6,0.8-1.1,1.3-1.6		c19.9-22.4,48-54,68.3-76.8c0,0,0.1-0.1,0.1-0.1c1.5-1.7,3-3.4,4.5-5c0,0,0.1-0.1,0.1-0.1c2.9-3.3,5.5-6.3,7.9-9		c0.3-0.4,0.7-0.7,1.1-0.8c0.2-0.1,0.5-0.2,0.7-0.2c0.6-0.1,1.1-0.1,1.6,0.1c0.3,0.1,0.5,0.2,0.7,0.3c0.7,0.4,1.2,0.9,1.5,1.8		l14.6,44c0.1,0.4,0.3,0.8,0.6,1.1c0.1,0.2,0.3,0.3,0.4,0.4c0.2,0.2,0.3,0.3,0.5,0.4c0.3,0.2,0.7,0.4,1,0.5c0.2,0.1,0.3,0.1,0.5,0.1		c0.4,0.1,0.8,0.1,1.2,0c0.2,0,0.5-0.1,0.7-0.2c0.2-0.1,0.4-0.2,0.6-0.3s0.4-0.3,0.6-0.5c0.1-0.1,0.2-0.2,0.3-0.4		c0.1-0.1,0.2-0.3,0.3-0.5l9.4-16.5c1.3-2.3,1.9-5,1.6-7.6l-1-9l-5-46.9c-0.1-0.9,0.2-1.8,0.8-2.5c0.6-0.6,1.1-1.2,1.6-1.8		c0.6-0.6,1.1-1.2,1.6-1.8c1.1-1.2,2.1-2.4,3.2-3.6c1.5-1.8,3.1-3.4,4.6-5.1c0.5-0.6,0.9-1.1,1.4-1.6c2-2.2,3.8-4.3,5.6-6.3		c0.9-1,1.8-2,2.6-3c0.9-0.9,1.7-1.9,2.5-2.8c23-25.9,26.4-41.2,26.3-48c0-0.9-0.3-1.8-0.8-2.5c-0.2-0.2-0.3-0.5-0.6-0.7		c-0.3-0.3-0.6-0.5-1-0.7c-0.1,0-0.1,0-0.1-0.1c-0.3-0.1-0.7-0.3-1-0.4c-0.5-0.1-0.9-0.1-1.5-0.1c-0.1,0-0.2,0-0.3,0		c-0.4,0-0.8,0.1-1.2,0.2c-0.6,0.1-1.1,0.2-1.7,0.4c0,0-0.1,0-0.2,0c-0.6,0.1-1.1,0.3-1.7,0.5c-0.6,0.2-1.2,0.4-1.8,0.6		c-0.1,0-0.2,0.1-0.3,0.1c-0.5,0.2-1,0.4-1.6,0.7c-0.5,0.2-1.1,0.5-1.6,0.7c-0.2,0.1-0.3,0.1-0.5,0.2c-0.1,0.1-0.2,0.1-0.3,0.2		c-1.2,0.6-2.6,1.3-4,2.1c-0.6,0.4-1.3,0.8-1.9,1.2c-0.7,0.5-1.5,0.9-2.3,1.5c-0.8,0.6-1.8,1.2-2.7,1.9c-0.2,0.2-0.4,0.3-0.7,0.5		c-0.3,0.3-0.7,0.5-1,0.8c-1,0.8-2,1.6-3,2.5c-0.5,0.4-1,0.8-1.6,1.3c-0.5,0.4-1.1,0.9-1.6,1.4c-0.2,0.1-0.3,0.3-0.5,0.4		c4.5-4.2,48.5-43.8,81.7-27.1c7.1,8.9,13,18.8,17.6,29.6C241.5,92.2,244.8,108.5,244.8,125.6z"></path>
        <path class="st2" d="M200.4,221c-9.6,8-20.4,14.6-32.5,19.8c-15.3,6.6-31.6,9.9-48.7,9.9H93v17.8c0,13.2-4.5,24.3-13.6,33.2		c-9,8.8-19.8,13.2-32.4,13.3c-0.9,0-1.7,0-2.6-0.1c-2.4-0.1-4.8-0.4-7.1-0.9c-3.1-0.6-6.2-1.6-9-2.8c-5.6-2.4-10.5-5.8-14.6-10		c-4.3-4.2-7.5-9.1-10-14.8c-0.1-0.3-0.3-0.7-0.4-1.1c-1.1-3-1.4-6.1-1.1-9.2c0.1-0.7,0.2-1.4,0.3-2c0.1-0.7,0.3-1.3,0.4-1.9		c0.2-0.7,0.4-1.4,0.7-2c0-0.1,0.1-0.2,0.1-0.3c0.2-0.5,0.4-1,0.7-1.5c0.1-0.2,0.2-0.3,0.3-0.5c0.5-1.1,1.2-2.2,1.9-3.2		c0.4-0.6,0.8-1.1,1.3-1.6c13.1-14.7,29.7-33.4,45.3-50.9c8.1-2.3,21.2,0.8,46.8,15.3C144.3,252.8,176,235.7,200.4,221z"></path>
          </g>
    <g fill="#4d0000" id="text_group" transform="translate(356.43615974999994, 338.58855500000004)" opacity="1.0">
              <path d=""></path>
          </g>
  </svg>